<?xml version="1.0" standalone="no"?>
<!DOCTYPE svg PUBLIC "-//W3C//DTD SVG 20010904//EN"
 "http://www.w3.org/TR/2001/REC-SVG-20010904/DTD/svg10.dtd">
<svg version="1.0" xmlns="http://www.w3.org/2000/svg"
 width="32.000000pt" height="32.000000pt" viewBox="0 0 32.000000 32.000000"
 preserveAspectRatio="xMidYMid meet">

<g transform="translate(0.000000,32.000000) scale(0.100000,-0.100000)"
fill="#000000" stroke="none">
<path d="M137 267 c-14 -18 -19 -19 -26 -8 -7 11 -14 8 -36 -14 -22 -21 -25
-29 -14 -35 11 -7 8 -13 -10 -29 l-24 -21 24 -21 c18 -16 21 -22 10 -29 -11
-6 -8 -14 14 -35 21 -22 29 -25 35 -14 7 11 13 8 29 -10 l21 -24 21 24 c16 18
22 21 29 10 6 -11 14 -8 35 14 22 21 25 29 14 35 -11 7 -8 13 10 29 l24 21
-24 21 c-18 16 -21 22 -10 29 11 6 8 14 -14 35 -21 22 -29 25 -35 14 -7 -11
-13 -9 -28 9 -24 27 -23 27 -45 -1z m45 -19 c15 -18 21 -20 28 -9 7 12 11 11
26 -3 14 -15 15 -19 3 -26 -11 -7 -9 -13 10 -29 l24 -21 -24 -21 c-19 -16 -21
-22 -10 -29 12 -7 11 -11 -3 -26 -15 -14 -19 -15 -26 -3 -7 11 -13 9 -29 -10
l-21 -24 -21 24 c-16 19 -22 21 -29 10 -7 -12 -11 -11 -26 3 -14 15 -15 19 -3
26 11 7 9 13 -10 29 l-24 21 24 21 c19 16 21 22 10 29 -12 7 -11 11 3 26 15
14 19 15 27 3 7 -11 12 -10 26 8 22 28 21 28 45 1z"/>
<path d="M137 227 c-15 -18 -19 -20 -27 -7 -5 8 -12 11 -17 7 -4 -5 -1 -12 7
-17 12 -7 10 -13 -9 -29 l-24 -21 24 -21 c19 -16 21 -22 9 -29 -8 -5 -11 -12
-7 -17 5 -4 12 -1 17 7 7 12 13 10 29 -9 l21 -24 21 24 c16 19 22 21 29 9 5
-8 12 -11 17 -7 4 5 1 12 -7 17 -12 7 -10 13 9 29 l24 21 -24 21 c-19 16 -21
22 -9 29 8 5 11 12 7 17 -5 4 -12 1 -17 -7 -7 -12 -12 -11 -28 8 -24 27 -23
27 -45 -1z m59 -32 l35 -35 -36 -35 -35 -36 -35 36 -36 35 33 34 c18 19 34 35
36 35 1 1 18 -15 38 -34z"/>
<path d="M132 184 l-23 -24 26 -26 25 -25 25 26 26 25 -25 25 c-14 14 -26 25
-28 24 -2 0 -13 -11 -26 -25z m44 -9 c14 -13 14 -17 0 -31 -15 -14 -17 -14
-32 0 -12 13 -13 18 -2 30 16 19 16 19 34 1z"/>
<path d="M150 160 c0 -5 5 -10 10 -10 6 0 10 5 10 10 0 6 -4 10 -10 10 -5 0
-10 -4 -10 -10z"/>
</g>
</svg>
